PathFileType	4	(X/Y/Z)	c:/Users/goper/Files/vsCode/490R/osim_files/C12/C12_Slow_04.trc
DataRate	CameraRate	NumFrames	NumMarkers	Units                	OrigDataRate	OrigDataStartFrame	OrigNumFrames
120.00	120.00	6	36	mm	120.0	1035	1655
                Frame#	Time	LPSIS			LASIS			LTH1			LTH2			LTH3			LTH4			LLFE			LMFE			LSH1			LSH2			LSH3			LSH4			LLMAL			LMMAL			LCAL			LMTP5			LTOE			LMTP1			RPSIS			RASIS			RTH1			RTH2			RTH3			RTH4			RLFE			RMFE			RSH1			RSH2			RSH3			RSH4			RLMAL			RMMAL			RCAL			RMTP1			RTOE			RMTP5		
		X1	Y1	Z1	X2	Y2	Z2	X3	Y3	Z3	X4	Y4	Z4	X5	Y5	Z5	X6	Y6	Z6	X7	Y7	Z7	X8	Y8	Z8	X9	Y9	Z9	X10	Y10	Z10	X11	Y11	Z11	X12	Y12	Z12	X13	Y13	Z13	X14	Y14	Z14	X15	Y15	Z15	X16	Y16	Z16	X17	Y17	Z17	X18	Y18	Z18	X19	Y19	Z19	X20	Y20	Z20	X21	Y21	Z21	X22	Y22	Z22	X23	Y23	Z23	X24	Y24	Z24	X25	Y25	Z25	X26	Y26	Z26	X27	Y27	Z27	X28	Y28	Z28	X29	Y29	Z29	X30	Y30	Z30	X31	Y31	Z31	X32	Y32	Z32	X33	Y33	Z33	X34	Y34	Z34	X35	Y35	Z35	X36	Y36	Z36

1035	8.61667	-3307.73193	1069.84937	349.60425	-3482.77612	1019.40381	432.30475	-3318.62012	761.52008	461.27823	-3311.03809	718.10590	454.80844	0.00000	0.00000	0.00000	-3364.20435	706.72797	459.34686	-3298.06274	536.93738	412.06232	-3304.14746	534.12030	288.32144	-3213.83276	459.89816	426.04550	-3204.96606	413.29269	432.21912	-3268.99976	440.78937	417.32455	-3253.81128	398.07553	424.34427	-3143.54883	126.22833	375.07751	-3151.00122	129.37469	298.71072	0.00000	0.00000	0.00000	-3263.08960	46.95651	398.56662	-3319.05542	72.03918	329.34225	-3282.03784	47.68534	286.52216	-3312.53394	1056.80896	239.47223	-3496.90820	1026.72546	175.63846	-3470.84521	737.24683	106.03468	0.00000	0.00000	0.00000	-3532.08472	757.03955	112.87040	-3544.08130	711.66602	116.21490	-3569.47241	537.18549	150.01224	-3569.53589	533.61420	288.09726	-3553.96094	426.64282	130.78740	-3577.01367	388.77844	120.93240	-3613.28638	451.56631	130.74936	-3622.92773	408.22757	122.11983	-3740.54785	140.37454	151.03482	-3760.53906	166.23648	232.39000	-3705.12720	72.44975	199.86885	-3905.74365	165.36057	223.99347	-3927.09546	202.67201	187.07472	-3902.84009	152.98073	117.16428
1036	8.62500	-3317.04590	1067.87988	348.14365	-3492.64331	1018.31653	431.61719	-3325.97632	761.29468	460.38931	-3317.90259	717.80060	453.93982	0.00000	0.00000	0.00000	-3370.78564	705.78528	458.69983	-3303.99927	536.51892	411.89093	-3310.60913	533.43384	288.16769	-3218.72021	460.40451	425.53574	-3209.90356	414.08093	432.12515	-3273.94360	440.86572	416.98227	-3257.90063	398.01471	424.20642	-3144.74683	127.53766	375.01001	-3151.97021	130.21115	298.45068	0.00000	0.00000	0.00000	-3263.71875	46.85121	398.59671	-3318.97900	71.77721	329.31552	-3282.19067	47.53217	286.47968	0.00000	0.00000	0.00000	-3506.65845	1024.50732	175.25287	-3480.53589	735.26398	106.56721	0.00000	0.00000	0.00000	-3541.84058	754.74139	113.51849	-3553.61572	709.29724	116.82984	-3579.60400	535.31165	150.67683	-3578.97998	532.03424	288.75967	-3565.38013	424.20483	131.63885	-3589.26489	386.70712	121.94543	-3624.54224	450.00180	131.78116	-3634.54590	406.44687	123.18163	-3756.14331	140.94511	153.51602	-3775.82446	167.52342	234.72432	-3722.38696	72.63452	202.92612	-3921.11938	169.65770	225.90443	-3941.67700	206.98091	188.39618	-3918.19385	156.16006	119.12207
1037	8.63333	-3326.82886	1065.88904	346.84729	-3502.71631	1017.02899	430.77353	-3333.56299	760.85016	459.40051	-3325.24316	717.23682	453.24506	0.00000	0.00000	0.00000	-3377.83691	704.94574	458.23184	-3310.45386	535.92688	411.77945	-3317.52563	532.65692	288.09799	-3224.35107	460.66608	425.21414	-3212.90112	414.56879	430.68842	-3279.53149	440.59241	416.95706	-3262.56445	397.76837	424.12918	-3145.50073	128.53734	374.95856	-3153.12207	131.24179	298.24979	-3077.37036	111.78960	343.89590	-3263.22437	46.91956	398.47275	-3318.21509	71.60945	329.05463	-3282.30664	47.44315	286.43900	0.00000	0.00000	0.00000	-3516.55640	1022.34235	174.76326	-3491.18262	733.63782	106.91175	-3511.79468	692.16565	115.39788	-3552.53467	753.07330	114.07429	-3564.25757	707.61200	117.35915	-3590.74780	533.82599	151.34390	-3589.32373	530.78400	289.34476	-3577.02686	422.49014	132.88579	-3601.49561	385.17529	123.14008	-3636.24756	448.59320	132.86671	-3646.44751	404.91647	124.46220	-3769.83740	140.75269	155.96805	-3789.13379	167.68723	237.14668	-3737.00220	71.92407	205.81219	-3934.42725	171.77745	228.10968	-3954.38940	209.26447	190.50623	-3931.59937	157.78175	121.35493
1038	8.64167	-3336.56323	1064.00122	345.64920	-3512.81934	1015.69800	429.86536	-3341.54907	760.15649	458.55408	-3332.82617	716.59491	452.56393	0.00000	0.00000	0.00000	-3385.24707	703.88000	457.91885	-3317.45898	534.93219	411.69992	-3324.79419	531.71637	287.93073	-3230.39307	461.07745	424.68674	-3219.13794	414.78928	431.03790	-3288.42236	439.63837	420.13904	-3267.79492	397.23083	424.08408	-3146.76221	129.59457	375.18396	-3155.81812	132.19769	298.55426	0.00000	0.00000	0.00000	-3263.65771	46.88048	398.69693	-3318.08887	71.52409	328.93848	-3282.47437	47.33892	286.49985	0.00000	0.00000	0.00000	-3526.69556	1020.30560	174.19894	-3502.76099	732.39380	106.97611	-3529.35303	692.86432	110.50376	-3564.06641	751.97290	114.53997	-3575.84448	706.53198	117.93559	-3602.78198	532.86841	152.08409	-3600.51123	530.01245	290.00391	-3591.38867	421.41672	132.44498	-3613.74634	384.18640	124.41785	-3648.48267	447.48288	133.96173	-3658.77954	403.94998	125.56770	-3781.65015	139.79131	158.29462	-3800.55396	166.59195	239.60237	-3749.59399	72.13554	208.94376	-3944.68604	170.88472	229.39597	-3965.63281	209.26129	193.50522	-3943.19409	157.83122	124.02734
1039	8.65000	-3346.36890	1062.21509	344.52020	-3523.02271	1014.12964	428.80023	-3349.74951	759.18762	457.71167	-3340.77759	715.53479	451.86041	-3410.93506	745.87073	466.65839	-3393.05566	702.60291	457.61896	-3324.46240	533.72290	411.61737	-3332.19312	530.33746	287.63995	-3237.30054	460.83124	424.63553	-3225.63550	414.60828	431.06607	-3294.23584	438.47644	419.97339	-3273.69922	396.38025	424.04382	-3147.90576	130.73618	375.47208	-3155.62988	133.44347	298.75900	-3078.99072	115.10910	344.24310	-3263.47485	46.64598	398.67078	-3318.70947	71.50776	329.01089	-3282.62549	47.24443	286.56604	-3343.41187	1049.43567	231.33182	-3536.80347	1018.40631	173.54329	-3515.10303	731.44080	106.86552	-3541.96045	691.96442	110.70365	-3576.42065	751.46082	114.93909	-3588.39844	706.04718	118.46876	-3615.82764	532.43463	152.99217	-3612.41650	529.63623	290.80411	-3603.43311	420.87885	133.73776	-3625.72754	383.41092	125.66918	-3661.12158	446.62451	135.13203	-3671.24585	403.14111	126.72027	-3791.55542	138.05750	160.50908	-3810.60010	161.66002	239.99846	-3759.14478	70.36321	210.75674	-3954.47144	168.10693	232.44376	-3975.65259	206.72186	197.18741	-3957.19067	154.24921	126.65406
1040	8.65833	-3356.31860	1060.44910	343.61264	-3533.35400	1012.48328	427.67273	-3358.34595	757.78406	456.97455	-3349.31274	714.15729	451.35034	0.00000	0.00000	0.00000	-3401.47021	700.95825	457.26608	-3333.47144	532.05444	411.55444	-3340.29883	528.62469	287.45035	-3244.64868	460.31631	424.64294	-3231.78394	414.34314	431.07858	-3301.35278	437.10223	419.85706	-3280.01025	395.35742	423.96454	-3149.25073	132.02412	375.83875	-3156.81885	134.80275	298.99847	-3078.05176	115.39885	341.82504	-3263.67017	46.50721	398.81827	-3317.85132	71.50302	328.47513	-3282.76929	47.13562	286.61490	0.00000	0.00000	0.00000	-3546.97119	1016.63715	172.77769	-3528.27393	730.79553	106.41974	-3555.21533	691.36212	110.78905	-3589.33252	751.40552	115.23824	-3601.72314	706.13971	118.98559	-3629.58618	532.40448	154.09407	-3624.85425	529.63934	291.67026	-3615.98511	420.93021	134.53712	-3637.69824	383.18643	126.61585	-3673.88574	445.80307	136.40462	-3683.74097	402.47162	128.02560	-3799.92603	135.81841	162.56583	-3818.64014	158.62355	242.22704	-3766.54102	68.01165	212.24158	-3962.75537	163.38029	236.09172	-3984.72876	202.11076	201.21501	-3966.00586	150.57306	130.19954
